<svg xmlns="http://www.w3.org/2000/svg" viewBox="0 0 77.24 100">
    <defs>
        <style>.cls-1{fill:#4d4d4d}.cls-2{fill:#e03e1a}.cls-3{fill:#fff}</style>
    </defs>
    <title>ico_pdf</title>
    <g id="Layer_2" data-name="Layer 2">
        <g id="Layer_1-2" data-name="Layer 1">
            <path class="cls-1" d="M56 0H16.49c-4.37 0-7.92 3.81-7.92 8.49v7.69h3.56V8.49a4.68 4.68 0 0 1 4.36-4.93h36.9V19.5a6.06 6.06 0 0 0 5.85 6.23h14.44V84a4.68 4.68 0 0 1-4.36 4.93h-5.1l-2.75 3.56h7.85c4.37 0 7.92-3.81 7.92-8.49V23.26zm3.28 22.17a2.51 2.51 0 0 1-2.3-2.68V6.34l14.44 15.83zM39.65 88.92H16.49A4.68 4.68 0 0 1 12.13 84V41H8.57v43c0 4.68 3.55 8.49 7.92 8.49H42.4z"/>
            <path class="cls-2" d="M0 18.67h47.25V38.5H0zM36.91 78.23a1.17 1.17 0 0 0-.91 1.88l15 19.44a1.17 1.17 0 0 0 1.85 0l15-19.43a1.17 1.17 0 0 0-.85-1.89h-5.57a.58.58 0 0 1-.58-.58v-20.8a1.17 1.17 0 0 0-1.17-1.17H44.2a1.17 1.17 0 0 0-1.2 1.17v20.8a.58.58 0 0 1-.58.58z"/>
            <path class="cls-3" d="M7.59 22.34a23.6 23.6 0 0 1 3.91-.27 6.13 6.13 0 0 1 3.91 1 3.74 3.74 0 0 1 1.37 3 4.08 4.08 0 0 1-1.18 3 5.92 5.92 0 0 1-4.15 1.35 7.19 7.19 0 0 1-1-.06V35H7.59zm2.86 5.81a4.4 4.4 0 0 0 1 .08c1.54 0 2.49-.78 2.49-2.09s-.82-1.88-2.26-1.88a4.92 4.92 0 0 0-1.2.11zM18.62 22.34a25.79 25.79 0 0 1 3.91-.27 8.22 8.22 0 0 1 5.24 1.37 5.66 5.66 0 0 1 2.16 4.82 6.49 6.49 0 0 1-2.12 5.18 9.18 9.18 0 0 1-5.9 1.65 25 25 0 0 1-3.28-.19zm2.9 10.44a5.29 5.29 0 0 0 1 .06c2.62 0 4.33-1.42 4.33-4.48a3.67 3.67 0 0 0-4-4.06 6 6 0 0 0-1.31.11zM31.84 22.17h7.82v2.37h-4.92v2.92h4.59v2.35h-4.59V35h-2.9z"/>
        </g>
    </g>
</svg>